<svg width="26" height="27" viewBox="0 0 26 27" fill="none" xmlns="http://www.w3.org/2000/svg">
<path d="M17.6901 17.2874L17.3686 17.6385L17.7036 17.9768L25.3696 25.7198C25.4526 25.8073 25.499 25.9233 25.499 26.0441C25.499 26.1658 25.4518 26.2828 25.3675 26.3705L25.3674 26.3705L25.3628 26.3754C25.3253 26.4155 25.2798 26.4475 25.2294 26.4693C25.1793 26.4909 25.1254 26.502 25.0709 26.5021C25.0146 26.5013 24.959 26.4894 24.9074 26.4671C24.8552 26.4446 24.808 26.4118 24.7686 26.3708L24.7686 26.3707L24.7628 26.3648L17.0148 18.5578L16.7068 18.2475L16.3582 18.5113C14.6491 19.8045 12.5638 20.503 10.4206 20.5L10.4186 20.5001C8.14687 20.5061 5.94228 19.7303 4.17501 18.3029C2.40774 16.8755 1.18544 14.8835 0.713348 12.6614C0.241261 10.4393 0.548147 8.1224 1.58247 6.09982C2.61679 4.07725 4.31556 2.47216 6.3935 1.5541C8.47143 0.636047 10.802 0.460935 12.9938 1.05818C15.1856 1.65542 17.1051 2.98864 18.4301 4.83394C19.755 6.67925 20.4046 8.92426 20.2699 11.192C20.1352 13.4597 19.2243 15.612 17.6901 17.2874ZM10.4175 19.6H10.4198C12.2039 19.6002 13.9481 19.0722 15.4325 18.0825C16.9169 17.0929 18.0751 15.6859 18.7611 14.039C19.447 12.3921 19.6301 10.579 19.2871 8.82821C18.9442 7.07743 18.0906 5.46737 16.8339 4.201C15.5773 2.93463 13.9738 2.06864 12.2257 1.71221C10.4776 1.35577 8.66316 1.52485 7.01101 2.19811C5.35887 2.87138 3.94303 4.0187 2.94198 5.49544C1.94093 6.97218 1.39949 8.71224 1.38591 10.4962L1.88589 10.5001L1.38589 10.4986C1.37886 12.9025 2.32592 15.211 4.01919 16.9174C5.71247 18.6237 8.0136 19.5886 10.4175 19.6Z" fill="#E8E8E8" stroke="black"/>
</svg>
